<?xml version="1.0" encoding="UTF-8" standalone="no"?>
<!DOCTYPE svg PUBLIC "-//W3C//DTD SVG 1.1//EN"
"http://www.w3.org/Graphics/SVG/1.1/DTD/svg11.dtd">
<svg viewBox="0 0 1624 1255" version="1.1" xmlns="http://www.w3.org/2000/svg" xmlns:xlink="http://www.w3.org/1999/xlink">
<defs>
<clipPath id="c0_2"><path d="M0,1255.8V0H1624V1255.8Z"/></clipPath>
</defs>
<g clip-path="url(#c0_2)">
<image preserveAspectRatio="none" x="860" y="102" width="66" height="66" xlink:href="img/1.jpg"/>
<g clip-path="url(#c0_2)">
<image preserveAspectRatio="none" x="926" y="102" width="66" height="66" xlink:href="img/2.jpg"/>
<image preserveAspectRatio="none" x="992" y="102" width="65" height="66" xlink:href="img/3.jpg"/>
<image preserveAspectRatio="none" x="1057" y="102" width="66" height="66" xlink:href="img/4.jpg"/>
<image preserveAspectRatio="none" x="1123" y="102" width="66" height="66" xlink:href="img/5.jpg"/>
<image preserveAspectRatio="none" x="1189" y="102" width="65" height="66" xlink:href="img/6.jpg"/>
<image preserveAspectRatio="none" x="1254" y="102" width="66" height="66" xlink:href="img/7.jpg"/>
<image preserveAspectRatio="none" x="1320" y="102" width="66" height="66" xlink:href="img/8.jpg"/>
<image preserveAspectRatio="none" x="1386" y="102" width="65" height="66" xlink:href="img/9.jpg"/>
<image preserveAspectRatio="none" x="1451" y="102" width="66" height="66" xlink:href="img/10.jpg"/>
<image preserveAspectRatio="none" x="1451" y="168" width="66" height="66" xlink:href="img/11.jpg"/>
<image preserveAspectRatio="none" x="1451" y="234" width="66" height="65" xlink:href="img/12.jpg"/>
<image preserveAspectRatio="none" x="1451" y="299" width="66" height="66" xlink:href="img/13.jpg"/>
<image preserveAspectRatio="none" x="1451" y="365" width="66" height="66" xlink:href="img/14.jpg"/>
<image preserveAspectRatio="none" x="1451" y="431" width="66" height="66" xlink:href="img/15.jpg"/>
<image preserveAspectRatio="none" x="1451" y="497" width="66" height="65" xlink:href="img/16.jpg"/>
<image preserveAspectRatio="none" x="1451" y="562" width="66" height="66" xlink:href="img/17.jpg"/>
<image preserveAspectRatio="none" x="1451" y="628" width="66" height="66" xlink:href="img/18.jpg"/>
<image preserveAspectRatio="none" x="1451" y="694" width="66" height="65" xlink:href="img/19.jpg"/>
<image preserveAspectRatio="none" x="1451" y="759" width="66" height="66" xlink:href="img/20.jpg"/>
<image preserveAspectRatio="none" x="1451" y="825" width="66" height="66" xlink:href="img/21.jpg"/>
<image preserveAspectRatio="none" x="1451" y="891" width="66" height="65" xlink:href="img/22.jpg"/>
<image preserveAspectRatio="none" x="1451" y="956" width="66" height="66" xlink:href="img/23.jpg"/>
<image preserveAspectRatio="none" x="1451" y="1022" width="66" height="66" xlink:href="img/24.jpg"/>
<image preserveAspectRatio="none" x="1451" y="1088" width="66" height="65" xlink:href="img/25.jpg"/>
<image preserveAspectRatio="none" x="1386" y="1088" width="65" height="65" xlink:href="img/26.jpg"/>
<image preserveAspectRatio="none" x="1320" y="1088" width="66" height="65" xlink:href="img/27.jpg"/>
<image preserveAspectRatio="none" x="1254" y="1088" width="66" height="65" xlink:href="img/28.jpg"/>
<image preserveAspectRatio="none" x="1189" y="1088" width="65" height="65" xlink:href="img/29.jpg"/>
<image preserveAspectRatio="none" x="1123" y="1088" width="66" height="65" xlink:href="img/30.jpg"/>
<image preserveAspectRatio="none" x="1057" y="1088" width="66" height="65" xlink:href="img/31.jpg"/>
<image preserveAspectRatio="none" x="992" y="1088" width="65" height="65" xlink:href="img/32.jpg"/>
<image preserveAspectRatio="none" x="926" y="1088" width="66" height="65" xlink:href="img/33.jpg"/>
<image preserveAspectRatio="none" x="860" y="1088" width="66" height="65" xlink:href="img/34.jpg"/>
<image preserveAspectRatio="none" x="794" y="1088" width="66" height="65" xlink:href="img/35.jpg"/>
<image preserveAspectRatio="none" x="729" y="1088" width="65" height="65" xlink:href="img/36.jpg"/>
<image preserveAspectRatio="none" x="663" y="1088" width="66" height="65" xlink:href="img/37.jpg"/>
<image preserveAspectRatio="none" x="597" y="1088" width="66" height="65" xlink:href="img/38.jpg"/>
<image preserveAspectRatio="none" x="532" y="1088" width="65" height="65" xlink:href="img/39.jpg"/>
<image preserveAspectRatio="none" x="466" y="1088" width="66" height="65" xlink:href="img/40.jpg"/>
<image preserveAspectRatio="none" x="400" y="1088" width="66" height="65" xlink:href="img/41.jpg"/>
<image preserveAspectRatio="none" x="335" y="1088" width="65" height="65" xlink:href="img/42.jpg"/>
<image preserveAspectRatio="none" x="269" y="1088" width="66" height="65" xlink:href="img/43.jpg"/>
<image preserveAspectRatio="none" x="203" y="1088" width="66" height="65" xlink:href="img/44.jpg"/>
<image preserveAspectRatio="none" x="203" y="1022" width="66" height="66" xlink:href="img/45.jpg"/>
<image preserveAspectRatio="none" x="203" y="956" width="66" height="66" xlink:href="img/46.jpg"/>
<image preserveAspectRatio="none" x="203" y="891" width="66" height="65" xlink:href="img/47.jpg"/>
<image preserveAspectRatio="none" x="203" y="825" width="66" height="66" xlink:href="img/48.jpg"/>
<image preserveAspectRatio="none" x="203" y="759" width="66" height="66" xlink:href="img/49.jpg"/>
<image preserveAspectRatio="none" x="203" y="694" width="66" height="65" xlink:href="img/50.jpg"/>
<image preserveAspectRatio="none" x="203" y="628" width="66" height="66" xlink:href="img/51.jpg"/>
<image preserveAspectRatio="none" x="203" y="562" width="66" height="66" xlink:href="img/52.jpg"/>
<image preserveAspectRatio="none" x="203" y="497" width="66" height="65" xlink:href="img/53.jpg"/>
<image preserveAspectRatio="none" x="203" y="431" width="66" height="66" xlink:href="img/54.jpg"/>
<image preserveAspectRatio="none" x="203" y="365" width="66" height="66" xlink:href="img/55.jpg"/>
<image preserveAspectRatio="none" x="203" y="299" width="66" height="66" xlink:href="img/56.jpg"/>
<image preserveAspectRatio="none" x="203" y="234" width="66" height="65" xlink:href="img/57.jpg"/>
<image preserveAspectRatio="none" x="203" y="168" width="66" height="66" xlink:href="img/58.jpg"/>
<image preserveAspectRatio="none" x="203" y="102" width="66" height="66" xlink:href="img/59.jpg"/>
<image preserveAspectRatio="none" x="269" y="102" width="66" height="66" xlink:href="img/60.jpg"/>
<image preserveAspectRatio="none" x="335" y="102" width="65" height="66" xlink:href="img/61.jpg"/>
<image preserveAspectRatio="none" x="400" y="102" width="66" height="66" xlink:href="img/62.jpg"/>
<image preserveAspectRatio="none" x="466" y="102" width="66" height="66" xlink:href="img/63.jpg"/>
<image preserveAspectRatio="none" x="532" y="102" width="65" height="66" xlink:href="img/64.jpg"/>
<image preserveAspectRatio="none" x="597" y="102" width="66" height="66" xlink:href="img/65.jpg"/>
<image preserveAspectRatio="none" x="663" y="102" width="66" height="66" xlink:href="img/66.jpg"/>
<image preserveAspectRatio="none" x="729" y="102" width="65" height="66" xlink:href="img/67.jpg"/>
<image preserveAspectRatio="none" x="794" y="102" width="66" height="66" xlink:href="img/68.jpg"/>
</g>
</g>
</svg>